<svg width="130" height="26" viewBox="0 0 130 26" fill="none" xmlns="http://www.w3.org/2000/svg">
<g clip-path="url(#clip0_13826_7244)">
<path d="M41.0527 20.879H43.9891L44.6719 11.8429C44.7402 10.7732 44.6947 9.31646 44.6947 9.31646H44.7402C44.7402 9.31646 45.2409 10.9097 45.6279 11.8429L48.2226 18.1022H50.7946L53.4121 11.8429C53.799 10.9097 54.277 9.33922 54.277 9.33922H54.3225C54.3225 9.33922 54.277 10.7732 54.3453 11.8429L55.0281 20.879H57.9415L56.6441 4.71875H53.5031L50.3394 12.7078C49.9752 13.6638 49.5427 15.075 49.5427 15.075H49.4972C49.4972 15.075 49.042 13.6638 48.6778 12.7078L45.5141 4.71875H42.3729L41.0527 20.879ZM59.351 15.075C59.351 18.3753 61.7409 21.1521 65.5875 21.1521C68.4781 21.1521 70.2534 19.4906 70.2534 19.4906L69.1382 17.4194C69.1382 17.4194 67.6587 18.694 65.7923 18.694C64.0625 18.694 62.492 17.647 62.3099 15.6212H70.3217C70.3217 15.6212 70.39 14.8474 70.39 14.506C70.39 11.4332 68.5919 8.99781 65.246 8.99781C61.7864 8.99781 59.351 11.5015 59.351 15.075ZM62.4009 13.641C62.6741 12.1388 63.6983 11.2284 65.1778 11.2284C66.4524 11.2284 67.4311 12.0705 67.4766 13.641H62.4009ZM72.3636 16.6227C72.3636 20.5148 75.5729 20.9928 77.189 20.9928C77.7352 20.9928 78.0766 20.9245 78.0766 20.9245V18.3981C78.0766 18.3981 77.8718 18.4436 77.5531 18.4436C76.7565 18.4436 75.2543 18.1705 75.2543 16.2585V11.7519H77.8946V9.45303H75.2543V6.10717H72.4319V9.45303H70.8614V11.7519H72.3636V16.6227ZM79.532 20.879H82.4227V16.2813C82.4227 15.5985 82.4909 14.9612 82.673 14.3921C83.2193 12.6623 84.6077 11.9567 85.8368 11.9567C86.2237 11.9567 86.5196 12.0023 86.5196 12.0023V9.15713C86.5196 9.15713 86.2693 9.11161 85.9961 9.11161C84.2208 9.11161 82.8324 10.4317 82.3089 12.0933H82.2633C82.2633 12.0933 82.3089 11.7064 82.3089 11.2739V9.27094H79.532V20.879ZM86.6925 15.075C86.6925 18.6484 89.5376 21.1521 93.0884 21.1521C96.6163 21.1521 99.4614 18.6484 99.4614 15.075C99.4614 11.5243 96.6163 8.99781 93.0656 8.99781C89.5376 8.99781 86.6925 11.5243 86.6925 15.075ZM89.6287 15.075C89.6287 12.9354 91.1992 11.456 93.0884 11.456C94.9548 11.456 96.5253 12.9354 96.5253 15.075C96.5253 17.2373 94.9548 18.694 93.0884 18.694C91.1992 18.694 89.6287 17.2373 89.6287 15.075ZM100.873 20.879H103.763V15.553C103.763 15.0067 103.809 14.4832 103.968 14.0052C104.401 12.6168 105.539 11.6381 107.086 11.6381C108.566 11.6381 108.93 12.594 108.93 14.0052V20.879H111.798V13.4134C111.798 10.3407 110.341 8.99781 107.769 8.99781C105.425 8.99781 104.15 10.4317 103.649 11.4105H103.604C103.604 11.4105 103.649 11.0463 103.649 10.6138V9.27094H100.873V20.879ZM113.921 7.29074H116.789V4.71875H113.921V7.29074ZM113.921 20.879H116.811V9.27094H113.921V20.879ZM118.236 15.075C118.236 18.4436 120.694 21.1521 124.541 21.1521C127.659 21.1521 129.321 19.263 129.321 19.263L128.205 17.2145C128.205 17.2145 126.749 18.694 124.791 18.694C122.583 18.694 121.172 17.0097 121.172 15.0522C121.172 13.072 122.561 11.456 124.7 11.456C126.521 11.456 127.727 12.7078 127.727 12.7078L129.002 10.7276C129.002 10.7276 127.568 8.99781 124.541 8.99781C120.694 8.99781 118.236 11.7746 118.236 15.075Z" fill="white"/>
<path d="M26.7502 1.9596L33.4071 22.6867C33.7701 23.8169 32.9271 24.9729 31.7401 24.9729H26.845C26.0822 24.9729 25.4072 24.479 25.1763 23.752L18.5951 3.02484C18.2366 1.89585 19.0793 0.744141 20.2638 0.744141H25.0832C25.8439 0.744141 26.5176 1.23533 26.7502 1.9596Z" fill="white"/>
<g filter="url(#filter0_i_13826_7244)">
<path d="M20.3744 17.2896L15.6804 2.25389C15.4 1.35575 14.5683 0.744141 13.6274 0.744141C12.4822 0.744141 11.5378 1.6416 11.4795 2.78536L10.9069 14.0239C10.8865 14.4231 10.9347 14.8228 11.0492 15.2057L13.5974 23.7239C13.8191 24.4652 14.5011 24.9729 15.2748 24.9729H17.6435C18.4056 24.9729 19.0801 24.48 19.3116 23.754L20.3649 20.4505C20.6926 19.4228 20.6959 18.3192 20.3744 17.2896Z" fill="white"/>
<path d="M20.3744 17.2896L15.6804 2.25389C15.4 1.35575 14.5683 0.744141 13.6274 0.744141C12.4822 0.744141 11.5378 1.6416 11.4795 2.78536L10.9069 14.0239C10.8865 14.4231 10.9347 14.8228 11.0492 15.2057L13.5974 23.7239C13.8191 24.4652 14.5011 24.9729 15.2748 24.9729H17.6435C18.4056 24.9729 19.0801 24.48 19.3116 23.754L20.3649 20.4505C20.6926 19.4228 20.6959 18.3192 20.3744 17.2896Z" fill="url(#paint0_linear_13826_7244)"/>
</g>
<path d="M8.89255 0.744141H13.7138C14.8944 0.744141 15.7366 1.88871 15.3853 3.01584L8.87176 23.9198C8.6438 24.6514 7.96653 25.1498 7.20019 25.1498H2.37901C1.19843 25.1498 0.356228 24.0053 0.707437 22.8781L7.22098 1.97413C7.44898 1.2425 8.12625 0.744141 8.89255 0.744141Z" fill="white"/>
</g>
<defs>
<filter id="filter0_i_13826_7244" x="6.90234" y="0.744141" width="13.7109" height="27.2285" filterUnits="userSpaceOnUse" color-interpolation-filters="sRGB">
<feFlood flood-opacity="0" result="BackgroundImageFix"/>
<feBlend mode="normal" in="SourceGraphic" in2="BackgroundImageFix" result="shape"/>
<feColorMatrix in="SourceAlpha" type="matrix" values="0 0 0 0 0 0 0 0 0 0 0 0 0 0 0 0 0 0 127 0" result="hardAlpha"/>
<feOffset dx="-4" dy="3"/>
<feGaussianBlur stdDeviation="2"/>
<feComposite in2="hardAlpha" operator="arithmetic" k2="-1" k3="1"/>
<feColorMatrix type="matrix" values="0 0 0 0 0.904167 0 0 0 0 0.892865 0 0 0 0 0.892865 0 0 0 0.4 0"/>
<feBlend mode="normal" in2="shape" result="effect1_innerShadow_13826_7244"/>
</filter>
<linearGradient id="paint0_linear_13826_7244" x1="12.6933" y1="11.468" x2="21.4475" y2="14.0943" gradientUnits="userSpaceOnUse">
<stop stop-opacity="0.2"/>
<stop offset="0.911458" stop-color="white" stop-opacity="0"/>
</linearGradient>
<clipPath id="clip0_13826_7244">
<rect width="130" height="24.5118" fill="white" transform="translate(0 0.744141)"/>
</clipPath>
</defs>
</svg>