<svg width="34" height="25" viewBox="0 0 34 25" fill="none" xmlns="http://www.w3.org/2000/svg">
<path d="M26.6113 1.19526L33.1576 21.5779C33.5145 22.6892 32.6855 23.8261 31.5183 23.8261H26.7046C25.9544 23.8261 25.2906 23.3404 25.0636 22.6254L18.5917 2.24279C18.2392 1.13256 19.0679 0 20.2327 0H24.972C25.7201 0 26.3826 0.483029 26.6113 1.19526Z" fill="#252F4A"/>
<g filter="url(#filter0_i_2746_1555)">
<path d="M20.343 16.2704L15.7269 1.48465C15.4512 0.601442 14.6334 0 13.7081 0C12.5819 0 11.6532 0.882546 11.5959 2.00729L11.0328 13.059C11.0128 13.4516 11.0601 13.8446 11.1728 14.2212L13.6786 22.5978C13.8967 23.3267 14.5673 23.8261 15.3281 23.8261H17.6574C18.4068 23.8261 19.0701 23.3413 19.2978 22.6273L20.3336 19.3788C20.6558 18.3682 20.6591 17.2829 20.343 16.2704Z" fill="#F4F4F4"/>
<path d="M20.343 16.2704L15.7269 1.48465C15.4512 0.601442 14.6334 0 13.7081 0C12.5819 0 11.6532 0.882546 11.5959 2.00729L11.0328 13.059C11.0128 13.4516 11.0601 13.8446 11.1728 14.2212L13.6786 22.5978C13.8967 23.3267 14.5673 23.8261 15.3281 23.8261H17.6574C18.4068 23.8261 19.0701 23.3413 19.2978 22.6273L20.3336 19.3788C20.6558 18.3682 20.6591 17.2829 20.343 16.2704Z" fill="url(#paint0_linear_2746_1555)"/>
</g>
<path d="M9.05008 0H13.7911C14.9521 0 15.7803 1.12554 15.4349 2.23393L9.02963 22.7904C8.80546 23.5099 8.13945 24 7.38585 24H2.64481C1.48385 24 0.65565 22.8745 1.00102 21.766L7.40629 1.20954C7.63051 0.490076 8.29652 0 9.05008 0Z" fill="#252F4A"/>
<defs>
<filter id="filter0_i_2746_1555" x="7.02832" y="0" width="13.5493" height="26.8262" filterUnits="userSpaceOnUse" color-interpolation-filters="sRGB">
<feFlood flood-opacity="0" result="BackgroundImageFix"/>
<feBlend mode="normal" in="SourceGraphic" in2="BackgroundImageFix" result="shape"/>
<feColorMatrix in="SourceAlpha" type="matrix" values="0 0 0 0 0 0 0 0 0 0 0 0 0 0 0 0 0 0 127 0" result="hardAlpha"/>
<feOffset dx="-4" dy="3"/>
<feGaussianBlur stdDeviation="2"/>
<feComposite in2="hardAlpha" operator="arithmetic" k2="-1" k3="1"/>
<feColorMatrix type="matrix" values="0 0 0 0 0.904167 0 0 0 0 0.892865 0 0 0 0 0.892865 0 0 0 0.4 0"/>
<feBlend mode="normal" in2="shape" result="effect1_innerShadow_2746_1555"/>
</filter>
<linearGradient id="paint0_linear_2746_1555" x1="12.7895" y1="10.5456" x2="21.3982" y2="13.1283" gradientUnits="userSpaceOnUse">
<stop stop-opacity="0.2"/>
<stop offset="0.911458" stop-color="white" stop-opacity="0"/>
</linearGradient>
</defs>
</svg>
