<svg width="130" height="25" viewBox="0 0 130 25" fill="none" xmlns="http://www.w3.org/2000/svg">
<g clip-path="url(#clip0_2509_2025)">
<path d="M41.0532 20.1349H43.9896L44.6724 11.0988C44.7407 10.029 44.6951 8.57232 44.6951 8.57232H44.7407C44.7407 8.57232 45.2414 10.1656 45.6283 11.0988L48.2231 17.358H50.7951L53.4126 11.0988C53.7995 10.1656 54.2775 8.59508 54.2775 8.59508H54.323C54.323 8.59508 54.2775 10.029 54.3458 11.0988L55.0286 20.1349H57.942L56.6446 3.97461H53.5036L50.3399 11.9637C49.9757 12.9197 49.5432 14.3308 49.5432 14.3308H49.4977C49.4977 14.3308 49.0425 12.9197 48.6783 11.9637L45.5145 3.97461H42.3734L41.0532 20.1349ZM59.3514 14.3308C59.3514 17.6312 61.7413 20.408 65.5879 20.408C68.4786 20.408 70.2539 18.7465 70.2539 18.7465L69.1386 16.6752C69.1386 16.6752 67.6592 17.9498 65.7928 17.9498C64.063 17.9498 62.4924 16.9028 62.3104 14.8771H70.3222C70.3222 14.8771 70.3905 14.1032 70.3905 13.7618C70.3905 10.6891 68.5924 8.25367 65.2465 8.25367C61.7869 8.25367 59.3514 10.7574 59.3514 14.3308ZM62.4014 12.8969C62.6745 11.3947 63.6988 10.4842 65.1782 10.4842C66.4529 10.4842 67.4316 11.3264 67.4771 12.8969H62.4014ZM72.3641 15.8786C72.3641 19.7707 75.5734 20.2487 77.1895 20.2487C77.7357 20.2487 78.0771 20.1804 78.0771 20.1804V17.6539C78.0771 17.6539 77.8723 17.6995 77.5536 17.6995C76.757 17.6995 75.2548 17.4263 75.2548 15.5144V11.0077H77.895V8.70888H75.2548V5.36303H72.4324V8.70888H70.8619V11.0077H72.3641V15.8786ZM79.5325 20.1349H82.4232V15.5372C82.4232 14.8543 82.4914 14.217 82.6735 13.648C83.2198 11.9182 84.6082 11.2126 85.8373 11.2126C86.2242 11.2126 86.5201 11.2581 86.5201 11.2581V8.41299C86.5201 8.41299 86.2698 8.36747 85.9966 8.36747C84.2213 8.36747 82.8329 9.6876 82.3093 11.3492H82.2638C82.2638 11.3492 82.3093 10.9622 82.3093 10.5298V8.5268H79.5325V20.1349ZM86.693 14.3308C86.693 17.9043 89.5381 20.408 93.0888 20.408C96.6168 20.408 99.4619 17.9043 99.4619 14.3308C99.4619 10.7801 96.6168 8.25367 93.0661 8.25367C89.5381 8.25367 86.693 10.7801 86.693 14.3308ZM89.6292 14.3308C89.6292 12.1913 91.1997 10.7118 93.0888 10.7118C94.9552 10.7118 96.5257 12.1913 96.5257 14.3308C96.5257 16.4931 94.9552 17.9498 93.0888 17.9498C91.1997 17.9498 89.6292 16.4931 89.6292 14.3308ZM100.873 20.1349H103.764V14.8088C103.764 14.2626 103.809 13.7391 103.969 13.2611C104.401 11.8727 105.539 10.8939 107.087 10.8939C108.566 10.8939 108.93 11.8499 108.93 13.2611V20.1349H111.798V12.6693C111.798 9.59656 110.342 8.25367 107.77 8.25367C105.425 8.25367 104.151 9.68761 103.65 10.6663H103.604C103.604 10.6663 103.65 10.3022 103.65 9.86969V8.5268H100.873V20.1349ZM113.921 6.5466H116.789V3.97461H113.921V6.5466ZM113.921 20.1349H116.812V8.5268H113.921V20.1349ZM118.237 14.3308C118.237 17.6995 120.695 20.408 124.541 20.408C127.66 20.408 129.321 18.5188 129.321 18.5188L128.206 16.4704C128.206 16.4704 126.749 17.9498 124.792 17.9498C122.584 17.9498 121.173 16.2655 121.173 14.3081C121.173 12.3279 122.561 10.7118 124.701 10.7118C126.522 10.7118 127.728 11.9637 127.728 11.9637L129.003 9.9835C129.003 9.9835 127.569 8.25367 124.541 8.25367C120.695 8.25367 118.237 11.0305 118.237 14.3308Z" fill="#0D2451"/>
<path d="M26.7502 1.21546L33.4071 21.9426C33.7701 23.0727 32.9271 24.2288 31.7401 24.2288H26.845C26.0822 24.2288 25.4072 23.7349 25.1763 23.0078L18.5951 2.2807C18.2366 1.15171 19.0793 0 20.2638 0H25.0832C25.8439 0 26.5176 0.491194 26.7502 1.21546Z" fill="#50CD89"/>
<g filter="url(#filter0_i_2509_2025)">
<path d="M20.3744 16.5455L15.6804 1.50975C15.4 0.611608 14.5683 0 13.6274 0C12.4822 0 11.5378 0.897464 11.4795 2.04122L10.9069 13.2798C10.8865 13.6789 10.9347 14.0786 11.0492 14.4616L13.5974 22.9797C13.8191 23.721 14.5011 24.2288 15.2748 24.2288H17.6435C18.4056 24.2288 19.0801 23.7359 19.3116 23.0098L20.3649 19.7063C20.6926 18.6787 20.6959 17.5751 20.3744 16.5455Z" fill="#F4F4F4"/>
<path d="M20.3744 16.5455L15.6804 1.50975C15.4 0.611608 14.5683 0 13.6274 0C12.4822 0 11.5378 0.897464 11.4795 2.04122L10.9069 13.2798C10.8865 13.6789 10.9347 14.0786 11.0492 14.4616L13.5974 22.9797C13.8191 23.721 14.5011 24.2288 15.2748 24.2288H17.6435C18.4056 24.2288 19.0801 23.7359 19.3116 23.0098L20.3649 19.7063C20.6926 18.6787 20.6959 17.5751 20.3744 16.5455Z" fill="url(#paint0_linear_2509_2025)"/>
</g>
<path d="M8.89304 0H13.7142C14.8948 0 15.737 1.14456 15.3858 2.27169L8.87225 23.1757C8.64429 23.9073 7.96702 24.4057 7.20068 24.4057H2.3795C1.19891 24.4057 0.356717 23.2611 0.707925 22.134L7.22147 1.22999C7.44947 0.49836 8.12674 0 8.89304 0Z" fill="#50CD89"/>
</g>
<defs>
<filter id="filter0_i_2509_2025" x="6.90234" y="0" width="13.7109" height="27.2285" filterUnits="userSpaceOnUse" color-interpolation-filters="sRGB">
<feFlood flood-opacity="0" result="BackgroundImageFix"/>
<feBlend mode="normal" in="SourceGraphic" in2="BackgroundImageFix" result="shape"/>
<feColorMatrix in="SourceAlpha" type="matrix" values="0 0 0 0 0 0 0 0 0 0 0 0 0 0 0 0 0 0 127 0" result="hardAlpha"/>
<feOffset dx="-4" dy="3"/>
<feGaussianBlur stdDeviation="2"/>
<feComposite in2="hardAlpha" operator="arithmetic" k2="-1" k3="1"/>
<feColorMatrix type="matrix" values="0 0 0 0 0.904167 0 0 0 0 0.892865 0 0 0 0 0.892865 0 0 0 0.4 0"/>
<feBlend mode="normal" in2="shape" result="effect1_innerShadow_2509_2025"/>
</filter>
<linearGradient id="paint0_linear_2509_2025" x1="12.6933" y1="10.7239" x2="21.4475" y2="13.3502" gradientUnits="userSpaceOnUse">
<stop stop-opacity="0.2"/>
<stop offset="0.911458" stop-color="white" stop-opacity="0"/>
</linearGradient>
<clipPath id="clip0_2509_2025">
<rect width="130" height="24.5118" fill="white"/>
</clipPath>
</defs>
</svg>
