<svg width="111" height="20" viewBox="0 0 111 20" fill="none" xmlns="http://www.w3.org/2000/svg">
<g clip-path="url(#clip0_2258_1641)">
<path d="M35.1953 16.5681H37.6968L38.2786 8.87003C38.3367 7.95868 38.298 6.71768 38.298 6.71768H38.3367C38.3367 6.71768 38.7633 8.07502 39.093 8.87003L41.3035 14.2024H43.4946L45.7245 8.87003C46.0542 8.07502 46.4614 6.73707 46.4614 6.73707H46.5002C46.5002 6.73707 46.4614 7.95868 46.5196 8.87003L47.1013 16.5681H49.5833L48.478 2.80078H45.8021L43.1068 9.60688C42.7966 10.4213 42.4281 11.6235 42.4281 11.6235H42.3894C42.3894 11.6235 42.0016 10.4213 41.6913 9.60688L38.996 2.80078H36.32L35.1953 16.5681ZM50.784 11.6235C50.784 14.4351 52.82 16.8008 56.097 16.8008C58.5596 16.8008 60.0721 15.3853 60.0721 15.3853L59.122 13.6207C59.122 13.6207 57.8616 14.7066 56.2715 14.7066C54.7979 14.7066 53.4599 13.8146 53.3048 12.0889H60.1303C60.1303 12.0889 60.1884 11.4296 60.1884 11.1387C60.1884 8.521 58.6566 6.44621 55.8062 6.44621C52.8588 6.44621 50.784 8.57918 50.784 11.6235ZM53.3823 10.4019C53.615 9.12211 54.4876 8.34649 55.748 8.34649C56.8339 8.34649 57.6677 9.06394 57.7064 10.4019H53.3823ZM61.8698 12.9421C61.8698 16.2578 64.6039 16.665 65.9806 16.665C66.446 16.665 66.7369 16.6069 66.7369 16.6069V14.4545C66.7369 14.4545 66.5623 14.4933 66.2909 14.4933C65.6122 14.4933 64.3324 14.2606 64.3324 12.6318V8.79247H66.5817V6.83402H64.3324V3.98361H61.928V6.83402H60.59V8.79247H61.8698V12.9421ZM67.9767 16.5681H70.4393V12.6512C70.4393 12.0695 70.4975 11.5265 70.6526 11.0418C71.118 9.56809 72.3008 8.96699 73.3479 8.96699C73.6776 8.96699 73.9296 9.00577 73.9296 9.00577V6.58194C73.9296 6.58194 73.7164 6.54316 73.4837 6.54316C71.9712 6.54316 70.7884 7.66782 70.3424 9.08333H70.3036C70.3036 9.08333 70.3424 8.75369 70.3424 8.38527V6.6789H67.9767V16.5681ZM74.0769 11.6235C74.0769 14.6678 76.5008 16.8008 79.5257 16.8008C82.5312 16.8008 84.9551 14.6678 84.9551 11.6235C84.9551 8.59857 82.5312 6.44621 79.5063 6.44621C76.5008 6.44621 74.0769 8.59857 74.0769 11.6235ZM76.5783 11.6235C76.5783 9.80078 77.9163 8.54039 79.5257 8.54039C81.1157 8.54039 82.4537 9.80078 82.4537 11.6235C82.4537 13.4656 81.1157 14.7066 79.5257 14.7066C77.9163 14.7066 76.5783 13.4656 76.5783 11.6235ZM86.1573 16.5681H88.6199V12.0307C88.6199 11.5653 88.6587 11.1193 88.7944 10.7121C89.1628 9.52931 90.1323 8.69552 91.4509 8.69552C92.7113 8.69552 93.0215 9.50992 93.0215 10.7121V16.5681H95.4648V10.208C95.4648 7.59026 94.2238 6.44621 92.0326 6.44621C90.0354 6.44621 88.9495 7.66782 88.5229 8.50161H88.4842C88.4842 8.50161 88.5229 8.19136 88.5229 7.82294V6.6789H86.1573V16.5681ZM97.2733 4.99192H99.7165V2.80078H97.2733V4.99192ZM97.2733 16.5681H99.7359V6.6789H97.2733V16.5681ZM100.95 11.6235C100.95 14.4933 103.044 16.8008 106.321 16.8008C108.977 16.8008 110.393 15.1914 110.393 15.1914L109.443 13.4462C109.443 13.4462 108.202 14.7066 106.534 14.7066C104.653 14.7066 103.451 13.2717 103.451 11.6041C103.451 9.91712 104.634 8.54039 106.457 8.54039C108.008 8.54039 109.036 9.60688 109.036 9.60688L110.121 7.9199C110.121 7.9199 108.9 6.44621 106.321 6.44621C103.044 6.44621 100.95 8.81186 100.95 11.6235Z" fill="#181C32"/>
<path d="M22.021 0.996047L27.4763 17.9815C27.7737 18.9077 27.0829 19.8551 26.1102 19.8551H22.0988C21.4736 19.8551 20.9205 19.4503 20.7313 18.8545L15.3381 1.86899C15.0443 0.943803 15.7349 0 16.7056 0H20.655C21.2784 0 21.8304 0.402524 22.021 0.996047Z" fill="#7239EA"/>
<g filter="url(#filter0_i_2258_1641)">
<path d="M16.7974 13.5587L12.9507 1.23721C12.7209 0.501202 12.0394 0 11.2683 0C10.3298 0 9.55592 0.735455 9.50815 1.67274L9.03887 10.8825C9.02222 11.2096 9.06168 11.5372 9.15555 11.851L11.2437 18.8315C11.4254 19.4389 11.9843 19.8551 12.6183 19.8551H14.5594C15.1839 19.8551 15.7367 19.4511 15.9264 18.8561L16.7896 16.149C17.058 15.3068 17.0608 14.4024 16.7974 13.5587Z" fill="#F4F4F4"/>
<path d="M16.7974 13.5587L12.9507 1.23721C12.7209 0.501202 12.0394 0 11.2683 0C10.3298 0 9.55592 0.735455 9.50815 1.67274L9.03887 10.8825C9.02222 11.2096 9.06168 11.5372 9.15555 11.851L11.2437 18.8315C11.4254 19.4389 11.9843 19.8551 12.6183 19.8551H14.5594C15.1839 19.8551 15.7367 19.4511 15.9264 18.8561L16.7896 16.149C17.058 15.3068 17.0608 14.4024 16.7974 13.5587Z" fill="url(#paint0_linear_2258_1641)"/>
</g>
<path d="M7.38679 0H11.3377C12.3051 0 12.9953 0.937949 12.7075 1.86161L7.36975 18.992C7.18294 19.5916 6.62793 20 5.99992 20H2.04906C1.08159 20 0.391427 19.062 0.679236 18.1384L6.01696 1.00795C6.20381 0.408396 6.75882 0 7.38679 0Z" fill="#7239EA"/>
</g>
<defs>
<filter id="filter0_i_2258_1641" x="5.03516" y="0" width="11.9578" height="22.855" filterUnits="userSpaceOnUse" color-interpolation-filters="sRGB">
<feFlood flood-opacity="0" result="BackgroundImageFix"/>
<feBlend mode="normal" in="SourceGraphic" in2="BackgroundImageFix" result="shape"/>
<feColorMatrix in="SourceAlpha" type="matrix" values="0 0 0 0 0 0 0 0 0 0 0 0 0 0 0 0 0 0 127 0" result="hardAlpha"/>
<feOffset dx="-4" dy="3"/>
<feGaussianBlur stdDeviation="2"/>
<feComposite in2="hardAlpha" operator="arithmetic" k2="-1" k3="1"/>
<feColorMatrix type="matrix" values="0 0 0 0 0.904167 0 0 0 0 0.892865 0 0 0 0 0.892865 0 0 0 0.4 0"/>
<feBlend mode="normal" in2="shape" result="effect1_innerShadow_2258_1641"/>
</filter>
<linearGradient id="paint0_linear_2258_1641" x1="10.5028" y1="8.78804" x2="17.6767" y2="10.9402" gradientUnits="userSpaceOnUse">
<stop stop-opacity="0.2"/>
<stop offset="0.911458" stop-color="white" stop-opacity="0"/>
</linearGradient>
<clipPath id="clip0_2258_1641">
<rect width="111" height="20" fill="white"/>
</clipPath>
</defs>
</svg>
