<svg width="29" height="20" viewBox="0 0 29 20" fill="none" xmlns="http://www.w3.org/2000/svg">
<path d="M23.2064 2.07227L28.1376 17.2366C28.5578 18.5289 27.5945 19.8551 26.2356 19.8551H23.4376C22.1305 19.8551 20.9739 19.0088 20.5783 17.763L15.9309 3.12631C15.4395 1.57872 16.5946 0 18.2184 0H20.3534C21.6528 0 22.8045 0.836546 23.2064 2.07227Z" fill="#7239EA"/>
<path d="M16.8308 13.048L13.1926 1.39443C12.9336 0.564894 12.1655 0 11.2965 0C10.4502 0 9.75246 0.66313 9.7094 1.50825L9.27676 9.99882C9.23029 10.9107 9.34029 11.8239 9.60198 12.6987L11.316 18.4283C11.5692 19.275 12.3483 19.8551 13.2321 19.8551H14.3392C15.2097 19.8551 15.9803 19.292 16.2447 18.4626L16.8199 16.6587C17.1942 15.4848 17.198 14.2241 16.8308 13.048Z" fill="#DFDDF2"/>
<path d="M16.8308 13.048L13.1926 1.39443C12.9336 0.564894 12.1655 0 11.2965 0C10.4502 0 9.75246 0.66313 9.7094 1.50825L9.27676 9.99882C9.23029 10.9107 9.34029 11.8239 9.60198 12.6987L11.316 18.4283C11.5692 19.275 12.3483 19.8551 13.2321 19.8551H14.3392C15.2097 19.8551 15.9803 19.292 16.2447 18.4626L16.8199 16.6587C17.1942 15.4848 17.198 14.2241 16.8308 13.048Z" stroke="black"/>
<path d="M8.61296 0H10.9376C12.5559 0 13.7104 1.56893 13.229 3.11397L8.62407 17.8925C8.23345 19.1461 7.07296 20 5.75989 20H2.99413C1.65067 20 0.68927 18.7018 1.08108 17.4167L5.74337 2.12509C6.12829 0.862609 7.29311 0 8.61296 0Z" fill="#7239EA"/>
</svg>
