<svg width="134" height="24" viewBox="0 0 134 24" fill="none" xmlns="http://www.w3.org/2000/svg">
<path d="M26.6113 1.19526L33.1576 21.5779C33.5145 22.6892 32.6855 23.8261 31.5183 23.8261H26.7046C25.9544 23.8261 25.2906 23.3404 25.0636 22.6254L18.5917 2.24279C18.2392 1.13256 19.0679 0 20.2327 0H24.972C25.7201 0 26.3826 0.483029 26.6113 1.19526Z" fill="#252F4A"/>
<g filter="url(#filter0_i_2746_1555)">
<path d="M20.343 16.2704L15.7269 1.48465C15.4512 0.601442 14.6334 0 13.7081 0C12.5819 0 11.6532 0.882546 11.5959 2.00729L11.0328 13.059C11.0128 13.4516 11.0601 13.8446 11.1728 14.2212L13.6786 22.5978C13.8967 23.3267 14.5673 23.8261 15.3281 23.8261H17.6574C18.4068 23.8261 19.0701 23.3413 19.2978 22.6273L20.3336 19.3788C20.6558 18.3682 20.6591 17.2829 20.343 16.2704Z" fill="#F4F4F4"/>
<path d="M20.343 16.2704L15.7269 1.48465C15.4512 0.601442 14.6334 0 13.7081 0C12.5819 0 11.6532 0.882546 11.5959 2.00729L11.0328 13.059C11.0128 13.4516 11.0601 13.8446 11.1728 14.2212L13.6786 22.5978C13.8967 23.3267 14.5673 23.8261 15.3281 23.8261H17.6574C18.4068 23.8261 19.0701 23.3413 19.2978 22.6273L20.3336 19.3788C20.6558 18.3682 20.6591 17.2829 20.343 16.2704Z" fill="url(#paint0_linear_2746_1555)"/>
</g>
<path d="M9.05008 0H13.7911C14.9521 0 15.7803 1.12554 15.4349 2.23393L9.02963 22.7904C8.80546 23.5099 8.13945 24 7.38585 24H2.64481C1.48385 24 0.65565 22.8745 1.00102 21.766L7.40629 1.20954C7.63051 0.490076 8.29652 0 9.05008 0Z" fill="#252F4A"/>
<path d="M42.8408 20.1204H45.8427L46.5407 10.8827C46.6105 9.78908 46.564 8.29989 46.564 8.29989H46.6105C46.6105 8.29989 47.1224 9.9287 47.518 10.8827L50.1706 17.2816H52.8L55.4759 10.8827C55.8715 9.9287 56.3601 8.32315 56.3601 8.32315H56.4067C56.4067 8.32315 56.3601 9.78908 56.4299 10.8827L57.128 20.1204H60.1064L58.7801 3.59961H55.569L52.3346 11.7669C51.9623 12.7442 51.5202 14.1869 51.5202 14.1869H51.4737C51.4737 14.1869 51.0083 12.7442 50.636 11.7669L47.4017 3.59961H44.1904L42.8408 20.1204ZM61.5472 14.1869C61.5472 17.5608 63.9905 20.3996 67.9229 20.3996C70.878 20.3996 72.693 18.701 72.693 18.701L71.5528 16.5835C71.5528 16.5835 70.0403 17.8866 68.1323 17.8866C66.3639 17.8866 64.7583 16.8162 64.5722 14.7453H72.7628C72.7628 14.7453 72.8326 13.9542 72.8326 13.6051C72.8326 10.4639 70.9943 7.97412 67.5738 7.97412C64.037 7.97412 61.5472 10.5337 61.5472 14.1869ZM64.6653 12.7209C64.9445 11.1852 65.9916 10.2545 67.504 10.2545C68.8071 10.2545 69.8076 11.1154 69.8542 12.7209H64.6653ZM74.8502 15.7691C74.8502 19.7481 78.1311 20.2367 79.7832 20.2367C80.3417 20.2367 80.6907 20.1669 80.6907 20.1669V17.5841C80.6907 17.5841 80.4813 17.6306 80.1555 17.6306C79.3411 17.6306 77.8054 17.3514 77.8054 15.3968V10.7896H80.5045V8.4395H77.8054V5.019H74.92V8.4395H73.3145V10.7896H74.8502V15.7691ZM82.1785 20.1204H85.1337V15.4201C85.1337 14.722 85.2035 14.0705 85.3896 13.4888C85.9481 11.7204 87.3675 10.9991 88.624 10.9991C89.0195 10.9991 89.322 11.0456 89.322 11.0456V8.13701C89.322 8.13701 89.0661 8.09047 88.7868 8.09047C86.9719 8.09047 85.5525 9.44005 85.0173 11.1387H84.9708C84.9708 11.1387 85.0173 10.7431 85.0173 10.301V8.25335H82.1785V20.1204ZM89.4988 14.1869C89.4988 17.8401 92.4074 20.3996 96.0373 20.3996C99.6439 20.3996 102.553 17.8401 102.553 14.1869C102.553 10.557 99.6439 7.97412 96.014 7.97412C92.4074 7.97412 89.4988 10.557 89.4988 14.1869ZM92.5004 14.1869C92.5004 11.9996 94.106 10.4871 96.0373 10.4871C97.9453 10.4871 99.5509 11.9996 99.5509 14.1869C99.5509 16.3974 97.9453 17.8866 96.0373 17.8866C94.106 17.8866 92.5004 16.3974 92.5004 14.1869ZM103.995 20.1204H106.95V14.6755C106.95 14.1171 106.997 13.5819 107.16 13.0932C107.602 11.6738 108.765 10.6733 110.348 10.6733C111.86 10.6733 112.232 11.6506 112.232 13.0932V20.1204H115.164V12.4883C115.164 9.34698 113.675 7.97412 111.046 7.97412C108.649 7.97412 107.346 9.44005 106.834 10.4406H106.787C106.787 10.4406 106.834 10.0683 106.834 9.6262V8.25335H103.995V20.1204ZM117.334 6.22897H120.266V3.59961H117.334V6.22897ZM117.334 20.1204H120.29V8.25335H117.334V20.1204ZM121.746 14.1869C121.746 17.6306 124.259 20.3996 128.192 20.3996C131.379 20.3996 133.078 18.4683 133.078 18.4683L131.938 16.3741C131.938 16.3741 130.449 17.8866 128.447 17.8866C126.19 17.8866 124.748 16.1647 124.748 14.1636C124.748 12.1392 126.167 10.4871 128.354 10.4871C130.216 10.4871 131.449 11.7669 131.449 11.7669L132.752 9.74255C132.752 9.74255 131.286 7.97412 128.192 7.97412C124.259 7.97412 121.746 10.8129 121.746 14.1869Z" fill="#4B5675"/>
<defs>
<filter id="filter0_i_2746_1555" x="7.02832" y="0" width="13.5493" height="26.8262" filterUnits="userSpaceOnUse" color-interpolation-filters="sRGB">
<feFlood flood-opacity="0" result="BackgroundImageFix"/>
<feBlend mode="normal" in="SourceGraphic" in2="BackgroundImageFix" result="shape"/>
<feColorMatrix in="SourceAlpha" type="matrix" values="0 0 0 0 0 0 0 0 0 0 0 0 0 0 0 0 0 0 127 0" result="hardAlpha"/>
<feOffset dx="-4" dy="3"/>
<feGaussianBlur stdDeviation="2"/>
<feComposite in2="hardAlpha" operator="arithmetic" k2="-1" k3="1"/>
<feColorMatrix type="matrix" values="0 0 0 0 0.904167 0 0 0 0 0.892865 0 0 0 0 0.892865 0 0 0 0.4 0"/>
<feBlend mode="normal" in2="shape" result="effect1_innerShadow_2746_1555"/>
</filter>
<linearGradient id="paint0_linear_2746_1555" x1="12.7895" y1="10.5456" x2="21.3982" y2="13.1283" gradientUnits="userSpaceOnUse">
<stop stop-opacity="0.2"/>
<stop offset="0.911458" stop-color="white" stop-opacity="0"/>
</linearGradient>
</defs>
</svg>
