<svg width="78" height="56" viewBox="0 0 78 56" fill="none" xmlns="http://www.w3.org/2000/svg">
<path d="M61.1141 2.77686L76.3226 50.1304C77.1518 52.7123 75.2259 55.3535 72.5142 55.3535H61.3308C59.588 55.3535 58.0458 54.2251 57.5184 52.5641L42.4828 5.21052C41.6638 2.63121 43.589 0 46.2952 0H57.3057C59.0437 0 60.5827 1.12219 61.1141 2.77686Z" fill="#3E97FF"/>
<g filter="url(#filter0_i_2325_1656)">
<path d="M46.5484 37.8L35.8242 3.44919C35.1836 1.39729 33.2836 0 31.134 0C28.5176 0 26.3601 2.05036 26.2269 4.66341L24.9186 30.3392C24.8721 31.2511 24.9821 32.1643 25.2438 33.0391L31.0654 52.4999C31.572 54.1934 33.1301 55.3535 34.8977 55.3535H40.3092C42.0502 55.3535 43.5913 54.2274 44.1202 52.5686L46.5265 45.0214C47.2751 42.6736 47.2827 40.1523 46.5484 37.8Z" fill="white"/>
<path d="M46.5484 37.8L35.8242 3.44919C35.1836 1.39729 33.2836 0 31.134 0C28.5176 0 26.3601 2.05036 26.2269 4.66341L24.9186 30.3392C24.8721 31.2511 24.9821 32.1643 25.2438 33.0391L31.0654 52.4999C31.572 54.1934 33.1301 55.3535 34.8977 55.3535H40.3092C42.0502 55.3535 43.5913 54.2274 44.1202 52.5686L46.5265 45.0214C47.2751 42.6736 47.2827 40.1523 46.5484 37.8Z" fill="url(#paint0_linear_2325_1656)"/>
</g>
<path d="M20.317 0H31.3316C34.0288 0 35.9529 2.61489 35.1505 5.18995L20.2695 52.9475C19.7487 54.619 18.2014 55.7576 16.4506 55.7576H5.43606C2.73888 55.7576 0.814784 53.1427 1.61716 50.5676L16.4981 2.81005C17.019 1.13856 18.5663 0 20.317 0Z" fill="#3E97FF"/>
<defs>
<filter id="filter0_i_2325_1656" x="24.9082" y="0" width="22.1853" height="55.3535" filterUnits="userSpaceOnUse" color-interpolation-filters="sRGB">
<feFlood flood-opacity="0" result="BackgroundImageFix"/>
<feBlend mode="normal" in="SourceGraphic" in2="BackgroundImageFix" result="shape"/>
<feColorMatrix in="SourceAlpha" type="matrix" values="0 0 0 0 0 0 0 0 0 0 0 0 0 0 0 0 0 0 127 0" result="hardAlpha"/>
<feOffset dx="-4" dy="3"/>
<feComposite in2="hardAlpha" operator="arithmetic" k2="-1" k3="1"/>
<feColorMatrix type="matrix" values="0 0 0 0 0.904167 0 0 0 0 0.892865 0 0 0 0 0.892865 0 0 0 0.4 0"/>
<feBlend mode="normal" in2="shape" result="effect1_innerShadow_2325_1656"/>
</filter>
<linearGradient id="paint0_linear_2325_1656" x1="28.9999" y1="24.5" x2="40.4999" y2="27.5" gradientUnits="userSpaceOnUse">
<stop stop-opacity="0.25"/>
<stop offset="0.911458" stop-color="white" stop-opacity="0"/>
</linearGradient>
</defs>
</svg>
