<svg width="168" height="40" viewBox="0 0 168 40" fill="none" xmlns="http://www.w3.org/2000/svg">
<g clip-path="url(#clip0_12943_31456)">
<path d="M43.5456 28.3572H46.6603L47.3845 18.7725C47.457 17.6378 47.4087 16.0927 47.4087 16.0927H47.457C47.457 16.0927 47.9881 17.7827 48.3985 18.7725L51.1508 25.4118H53.879L56.6554 18.7725C57.0658 17.7827 57.5728 16.1168 57.5728 16.1168H57.6211C57.6211 16.1168 57.5728 17.6378 57.6452 18.7725L58.3695 28.3572H61.4598L60.0837 11.2158H56.752L53.3961 19.69C53.0098 20.704 52.5511 22.2008 52.5511 22.2008H52.5028C52.5028 22.2008 52.02 20.704 51.6337 19.69L48.2778 11.2158H44.9459L43.5456 28.3572ZM62.9548 22.2008C62.9548 25.7015 65.4898 28.647 69.57 28.647C72.6361 28.647 74.5193 26.8845 74.5193 26.8845L73.3363 24.6875C73.3363 24.6875 71.767 26.0395 69.7873 26.0395C67.9524 26.0395 66.2865 24.929 66.0934 22.7802H74.5917C74.5917 22.7802 74.6641 21.9594 74.6641 21.5972C74.6641 18.338 72.7568 15.7547 69.2078 15.7547C65.5381 15.7547 62.9548 18.4104 62.9548 22.2008ZM66.19 20.6798C66.4797 19.0864 67.5661 18.1207 69.1354 18.1207C70.4874 18.1207 71.5255 19.014 71.5738 20.6798H66.19ZM76.7576 23.8425C76.7576 27.971 80.1617 28.478 81.8759 28.478C82.4553 28.478 82.8174 28.4055 82.8174 28.4055V25.7257C82.8174 25.7257 82.6001 25.774 82.2621 25.774C81.4171 25.774 79.8237 25.4842 79.8237 23.4562V18.676H82.6243V16.2375H79.8237V12.6885H76.83V16.2375H75.1641V18.676H76.7576V23.8425ZM84.3612 28.3572H87.4273V23.4804C87.4273 22.7561 87.4997 22.0801 87.6929 21.4765C88.2723 19.6417 89.745 18.8932 91.0487 18.8932C91.4592 18.8932 91.773 18.9415 91.773 18.9415V15.9237C91.773 15.9237 91.5075 15.8754 91.2177 15.8754C89.3346 15.8754 87.8619 17.2757 87.3066 19.0381H87.2583C87.2583 19.0381 87.3066 18.6277 87.3066 18.169V16.0444H84.3612V28.3572ZM91.9564 22.2008C91.9564 25.9912 94.9743 28.647 98.7406 28.647C102.483 28.647 105.501 25.9912 105.501 22.2008C105.501 18.4345 102.483 15.7547 98.7164 15.7547C94.9743 15.7547 91.9564 18.4345 91.9564 22.2008ZM95.0709 22.2008C95.0709 19.9314 96.7367 18.3621 98.7406 18.3621C100.72 18.3621 102.386 19.9314 102.386 22.2008C102.386 24.4944 100.72 26.0395 98.7406 26.0395C96.7367 26.0395 95.0709 24.4944 95.0709 22.2008ZM106.997 28.3572H110.064V22.7078C110.064 22.1284 110.112 21.5731 110.281 21.0661C110.74 19.5934 111.947 18.5552 113.588 18.5552C115.158 18.5552 115.544 19.5692 115.544 21.0661V28.3572H118.586V20.4384C118.586 17.1791 117.041 15.7547 114.313 15.7547C111.826 15.7547 110.474 17.2757 109.943 18.3138H109.895C109.895 18.3138 109.943 17.9275 109.943 17.4688V16.0444H106.997V28.3572ZM120.838 13.944H123.88V11.2158H120.838V13.944ZM120.838 28.3572H123.904V16.0444H120.838V28.3572ZM125.415 22.2008C125.415 25.774 128.023 28.647 132.103 28.647C135.41 28.647 137.173 26.6431 137.173 26.6431L135.99 24.4702C135.99 24.4702 134.445 26.0395 132.368 26.0395C130.026 26.0395 128.53 24.253 128.53 22.1767C128.53 20.0762 130.002 18.3621 132.272 18.3621C134.203 18.3621 135.483 19.69 135.483 19.69L136.835 17.5895C136.835 17.5895 135.314 15.7547 132.103 15.7547C128.023 15.7547 125.415 18.7001 125.415 22.2008Z" fill="white"/>
<path d="M28.3743 8.28926L35.4354 30.2748C35.8204 31.4736 34.9262 32.6998 33.6672 32.6998H28.4749C27.6658 32.6998 26.9497 32.1759 26.7049 31.4048L19.7241 9.41917C19.3438 8.22163 20.2377 7 21.4941 7H26.6061C27.413 7 28.1276 7.52102 28.3743 8.28926Z" fill="white"/>
<g filter="url(#filter0_i_12943_31456)">
<path d="M21.6114 24.55L16.6323 8.60141C16.3349 7.64874 15.4527 7 14.4547 7C13.2399 7 12.2382 7.95195 12.1765 9.16515L11.569 21.0861C11.5474 21.5094 11.5985 21.9334 11.72 22.3396L14.4229 31.375C14.6581 32.1612 15.3815 32.6998 16.2021 32.6998H18.7147C19.523 32.6998 20.2385 32.177 20.484 31.4068L21.6013 27.9028C21.9488 26.8127 21.9524 25.6421 21.6114 24.55Z" fill="#F4F4F4"/>
<path d="M21.6114 24.55L16.6323 8.60141C16.3349 7.64874 15.4527 7 14.4547 7C13.2399 7 12.2382 7.95195 12.1765 9.16515L11.569 21.0861C11.5474 21.5094 11.5985 21.9334 11.72 22.3396L14.4229 31.375C14.6581 32.1612 15.3815 32.6998 16.2021 32.6998H18.7147C19.523 32.6998 20.2385 32.177 20.484 31.4068L21.6013 27.9028C21.9488 26.8127 21.9524 25.6421 21.6114 24.55Z" fill="url(#paint0_linear_12943_31456)"/>
</g>
<path d="M9.43289 7H14.5468C15.7991 7 16.6924 8.21406 16.3199 9.40962L9.41084 31.5828C9.16904 32.3588 8.45065 32.8875 7.63778 32.8875H2.52389C1.27162 32.8875 0.378293 31.6734 0.750825 30.4778L7.65983 8.30467C7.90168 7.52862 8.62007 7 9.43289 7Z" fill="white"/>
</g>
<defs>
<filter id="filter0_i_12943_31456" x="7.56421" y="7" width="14.3003" height="28.7002" filterUnits="userSpaceOnUse" color-interpolation-filters="sRGB">
<feFlood flood-opacity="0" result="BackgroundImageFix"/>
<feBlend mode="normal" in="SourceGraphic" in2="BackgroundImageFix" result="shape"/>
<feColorMatrix in="SourceAlpha" type="matrix" values="0 0 0 0 0 0 0 0 0 0 0 0 0 0 0 0 0 0 127 0" result="hardAlpha"/>
<feOffset dx="-4" dy="3"/>
<feGaussianBlur stdDeviation="2"/>
<feComposite in2="hardAlpha" operator="arithmetic" k2="-1" k3="1"/>
<feColorMatrix type="matrix" values="0 0 0 0 0.904167 0 0 0 0 0.892865 0 0 0 0 0.892865 0 0 0 0.4 0"/>
<feBlend mode="normal" in2="shape" result="effect1_innerShadow_12943_31456"/>
</filter>
<linearGradient id="paint0_linear_12943_31456" x1="13.4639" y1="18.375" x2="22.7496" y2="21.1607" gradientUnits="userSpaceOnUse">
<stop stop-opacity="0.2"/>
<stop offset="0.911458" stop-color="white" stop-opacity="0"/>
</linearGradient>
<clipPath id="clip0_12943_31456">
<rect width="137.893" height="26" fill="white" transform="translate(0 7)"/>
</clipPath>
</defs>
</svg>