<svg width="36" height="26" viewBox="0 0 36 26" fill="none" xmlns="http://www.w3.org/2000/svg">
<path d="M28.3744 1.28926L35.4354 23.2748C35.8205 24.4736 34.9263 25.6998 33.6673 25.6998H28.475C27.6659 25.6998 26.9498 25.1759 26.705 24.4048L19.7242 2.41917C19.3439 1.22163 20.2377 0 21.4942 0H26.6062C27.4131 0 28.1277 0.521017 28.3744 1.28926Z" fill="white"/>
<g filter="url(#filter0_i_2609_3710)">
<path d="M21.6111 17.55L16.6321 1.60141C16.3347 0.648742 15.4525 0 14.4545 0C13.2397 0 12.238 0.951953 12.1762 2.16515L11.5688 14.0861C11.5472 14.5094 11.5983 14.9334 11.7198 15.3396L14.4227 24.375C14.6579 25.1612 15.3812 25.6998 16.2019 25.6998H18.7144C19.5227 25.6998 20.2383 25.177 20.4838 24.4068L21.601 20.9028C21.9486 19.8127 21.9521 18.6421 21.6111 17.55Z" fill="#F4F4F4"/>
<path d="M21.6111 17.55L16.6321 1.60141C16.3347 0.648742 15.4525 0 14.4545 0C13.2397 0 12.238 0.951953 12.1762 2.16515L11.5688 14.0861C11.5472 14.5094 11.5983 14.9334 11.7198 15.3396L14.4227 24.375C14.6579 25.1612 15.3812 25.6998 16.2019 25.6998H18.7144C19.5227 25.6998 20.2383 25.177 20.4838 24.4068L21.601 20.9028C21.9486 19.8127 21.9521 18.6421 21.6111 17.55Z" fill="url(#paint0_linear_2609_3710)"/>
</g>
<path d="M9.43297 0H14.5469C15.7992 0 16.6925 1.21406 16.32 2.40962L9.41091 24.5828C9.16911 25.3588 8.45072 25.8875 7.63785 25.8875H2.52396C1.2717 25.8875 0.378366 24.6734 0.750897 23.4778L7.65991 1.30467C7.90175 0.528617 8.62014 0 9.43297 0Z" fill="white"/>
<defs>
<filter id="filter0_i_2609_3710" x="7.56396" y="0" width="14.3003" height="28.7002" filterUnits="userSpaceOnUse" color-interpolation-filters="sRGB">
<feFlood flood-opacity="0" result="BackgroundImageFix"/>
<feBlend mode="normal" in="SourceGraphic" in2="BackgroundImageFix" result="shape"/>
<feColorMatrix in="SourceAlpha" type="matrix" values="0 0 0 0 0 0 0 0 0 0 0 0 0 0 0 0 0 0 127 0" result="hardAlpha"/>
<feOffset dx="-4" dy="3"/>
<feGaussianBlur stdDeviation="2"/>
<feComposite in2="hardAlpha" operator="arithmetic" k2="-1" k3="1"/>
<feColorMatrix type="matrix" values="0 0 0 0 0.904167 0 0 0 0 0.892865 0 0 0 0 0.892865 0 0 0 0.4 0"/>
<feBlend mode="normal" in2="shape" result="effect1_innerShadow_2609_3710"/>
</filter>
<linearGradient id="paint0_linear_2609_3710" x1="13.4637" y1="11.375" x2="22.7493" y2="14.1607" gradientUnits="userSpaceOnUse">
<stop stop-opacity="0.2"/>
<stop offset="0.911458" stop-color="white" stop-opacity="0"/>
</linearGradient>
</defs>
</svg>
