<svg width="34" height="24" viewBox="0 0 34 24" fill="none" xmlns="http://www.w3.org/2000/svg">
<path d="M26.1915 1.19008L32.7093 21.4845C33.0648 22.591 32.2394 23.7229 31.0772 23.7229H26.2843C25.5374 23.7229 24.8765 23.2393 24.6504 22.5275L18.2066 2.23308C17.8556 1.12766 18.6807 0 19.8405 0H24.5593C25.3041 0 25.9637 0.480939 26.1915 1.19008Z" fill="#6EAF26"/>
<g filter="url(#filter0_i_11325_4658)">
<path d="M19.9501 16.2L15.3541 1.47822C15.0795 0.598839 14.2652 0 13.344 0C12.2226 0 11.298 0.878726 11.2409 1.9986L10.6802 13.0025C10.6603 13.3933 10.7074 13.7847 10.8196 14.1596L13.3146 22.5C13.5317 23.2257 14.1994 23.7229 14.9569 23.7229H17.2762C18.0223 23.7229 18.6828 23.2403 18.9094 22.5294L19.9408 19.2949C20.2616 18.2887 20.2648 17.2081 19.9501 16.2Z" fill="#CFDFBD"/>
<path d="M19.9501 16.2L15.3541 1.47822C15.0795 0.598839 14.2652 0 13.344 0C12.2226 0 11.298 0.878726 11.2409 1.9986L10.6802 13.0025C10.6603 13.3933 10.7074 13.7847 10.8196 14.1596L13.3146 22.5C13.5317 23.2257 14.1994 23.7229 14.9569 23.7229H17.2762C18.0223 23.7229 18.6828 23.2403 18.9094 22.5294L19.9408 19.2949C20.2616 18.2887 20.2648 17.2081 19.9501 16.2Z" fill="url(#paint0_linear_11325_4658)"/>
</g>
<path d="M8.7063 0H13.4268C14.5828 0 15.4074 1.12067 15.0635 2.22426L8.68594 22.6918C8.46274 23.4081 7.79961 23.8961 7.04927 23.8961H2.32876C1.17282 23.8961 0.348209 22.7754 0.692084 21.6718L7.06963 1.20431C7.29287 0.487954 7.956 0 8.7063 0Z" fill="#6EAF26"/>
<defs>
<filter id="filter0_i_11325_4658" x="6.67578" y="0" width="13.5078" height="26.7227" filterUnits="userSpaceOnUse" color-interpolation-filters="sRGB">
<feFlood flood-opacity="0" result="BackgroundImageFix"/>
<feBlend mode="normal" in="SourceGraphic" in2="BackgroundImageFix" result="shape"/>
<feColorMatrix in="SourceAlpha" type="matrix" values="0 0 0 0 0 0 0 0 0 0 0 0 0 0 0 0 0 0 127 0" result="hardAlpha"/>
<feOffset dx="-4" dy="3"/>
<feGaussianBlur stdDeviation="2"/>
<feComposite in2="hardAlpha" operator="arithmetic" k2="-1" k3="1"/>
<feColorMatrix type="matrix" values="0 0 0 0 0.904167 0 0 0 0 0.892865 0 0 0 0 0.892865 0 0 0 0.4 0"/>
<feBlend mode="normal" in2="shape" result="effect1_innerShadow_11325_4658"/>
</filter>
<linearGradient id="paint0_linear_11325_4658" x1="12.4294" y1="10.5" x2="21.0007" y2="13.0714" gradientUnits="userSpaceOnUse">
<stop stop-color="#3E5A21" stop-opacity="0.2"/>
<stop offset="0.911458" stop-color="#C4D5B1" stop-opacity="0"/>
</linearGradient>
</defs>
</svg>