<svg width="109" height="29" viewBox="0 0 109 29" fill="none" xmlns="http://www.w3.org/2000/svg">
<path d="M28.2212 1.94782L35.4126 24.3392C35.8047 25.56 34.8941 26.8089 33.6118 26.8089H28.3237C27.4996 26.8089 26.7704 26.2754 26.521 25.4899L19.4113 3.09858C19.0241 1.87895 19.9344 0.634766 21.214 0.634766H26.4204C27.2422 0.634766 27.97 1.1654 28.2212 1.94782Z" fill="#252F4A"/>
<g filter="url(#filter0_i_15459_18931)">
<path d="M21.3352 18.5087L16.2642 2.26573C15.9613 1.29548 15.0629 0.634766 14.0464 0.634766C12.8092 0.634766 11.789 1.60429 11.7261 2.83988L11.1074 14.9808C11.0855 15.412 11.1375 15.8438 11.2612 16.2575L14.014 25.4596C14.2536 26.2604 14.9903 26.8089 15.8261 26.8089H18.3849C19.2082 26.8089 19.9369 26.2764 20.187 25.4921L21.3249 21.9233C21.6788 20.8132 21.6824 19.621 21.3352 18.5087Z" fill="#F4F4F4"/>
<path d="M21.3352 18.5087L16.2642 2.26573C15.9613 1.29548 15.0629 0.634766 14.0464 0.634766C12.8092 0.634766 11.789 1.60429 11.7261 2.83988L11.1074 14.9808C11.0855 15.412 11.1375 15.8438 11.2612 16.2575L14.014 25.4596C14.2536 26.2604 14.9903 26.8089 15.8261 26.8089H18.3849C19.2082 26.8089 19.9369 26.2764 20.187 25.4921L21.3249 21.9233C21.6788 20.8132 21.6824 19.621 21.3352 18.5087Z" fill="url(#paint0_linear_15459_18931)"/>
</g>
<path d="M8.92925 0.634766H14.1376C15.4129 0.634766 16.3228 1.87123 15.9433 3.08886L8.90679 25.6712C8.66053 26.4616 7.92888 27 7.10101 27H1.89273C0.617356 27 -0.292462 25.7635 0.0869456 24.5459L7.12347 1.96351C7.36978 1.17314 8.10142 0.634766 8.92925 0.634766Z" fill="#252F4A"/>
<path d="M41.9189 13.1935H44.1345L44.6497 6.37545C44.7013 5.56828 44.6669 4.46914 44.6669 4.46914H44.7013C44.7013 4.46914 45.0791 5.67132 45.371 6.37545L47.3289 11.0983H49.2695L51.2445 6.37545C51.5365 5.67132 51.8972 4.48632 51.8972 4.48632H51.9315C51.9315 4.48632 51.8972 5.56828 51.9487 6.37545L52.4639 13.1935H54.6622L53.6833 1H51.3132L48.9261 7.02806C48.6513 7.74937 48.325 8.81416 48.325 8.81416H48.2906C48.2906 8.81416 47.9471 7.74937 47.6724 7.02806L45.2852 1H42.915L41.9189 13.1935ZM55.7256 8.81416C55.7256 11.3044 57.5289 13.3996 60.4313 13.3996C62.6124 13.3996 63.952 12.1459 63.952 12.1459L63.1104 10.5831C63.1104 10.5831 61.9941 11.5448 60.5859 11.5448C59.2806 11.5448 58.0956 10.7548 57.9583 9.22633H64.0035C64.0035 9.22633 64.055 8.64242 64.055 8.38481C64.055 6.06632 62.6983 4.22871 60.1737 4.22871C57.5633 4.22871 55.7256 6.11784 55.7256 8.81416ZM58.0269 7.7322C58.233 6.59872 59.0059 5.91176 60.1222 5.91176C61.0839 5.91176 61.8224 6.54719 61.8567 7.7322H58.0269ZM65.5442 9.98199C65.5442 12.9187 67.9657 13.2794 69.1851 13.2794C69.5973 13.2794 69.8549 13.2279 69.8549 13.2279V11.3216C69.8549 11.3216 69.7003 11.3559 69.4599 11.3559C68.8588 11.3559 67.7253 11.1498 67.7253 9.7072V6.30676H69.7175V4.57219H67.7253V2.04761H65.5957V4.57219H64.4107V6.30676H65.5442V9.98199ZM70.953 13.1935H73.1341V9.72438C73.1341 9.20916 73.1856 8.72829 73.323 8.29894C73.7352 6.99372 74.7828 6.46132 75.7102 6.46132C76.0022 6.46132 76.2254 6.49567 76.2254 6.49567V4.34892C76.2254 4.34892 76.0365 4.31458 75.8304 4.31458C74.4908 4.31458 73.4432 5.31067 73.0482 6.56437H73.0139C73.0139 6.56437 73.0482 6.27241 73.0482 5.9461V4.43479H70.953V13.1935ZM76.3559 8.81416C76.3559 11.5105 78.5026 13.3996 81.1818 13.3996C83.8437 13.3996 85.9905 11.5105 85.9905 8.81416C85.9905 6.13502 83.8437 4.22871 81.1646 4.22871C78.5026 4.22871 76.3559 6.13502 76.3559 8.81416ZM78.5713 8.81416C78.5713 7.1998 79.7563 6.0835 81.1818 6.0835C82.59 6.0835 83.775 7.1998 83.775 8.81416C83.775 10.4457 82.59 11.5448 81.1818 11.5448C79.7563 11.5448 78.5713 10.4457 78.5713 8.81416ZM87.0553 13.1935H89.2364V9.17481C89.2364 8.76264 89.2707 8.36763 89.3909 8.00698C89.7172 6.95937 90.5759 6.22089 91.7438 6.22089C92.8601 6.22089 93.1349 6.94219 93.1349 8.00698V13.1935H95.2988V7.56046C95.2988 5.24197 94.1996 4.22871 92.259 4.22871C90.4901 4.22871 89.5283 5.31067 89.1505 6.04915H89.1161C89.1161 6.04915 89.1505 5.77436 89.1505 5.44806V4.43479H87.0553V13.1935ZM96.9006 2.94066H99.0645V1H96.9006V2.94066ZM96.9006 13.1935H99.0817V4.43479H96.9006V13.1935ZM100.157 8.81416C100.157 11.3559 102.011 13.3996 104.914 13.3996C107.267 13.3996 108.52 11.9742 108.52 11.9742L107.679 10.4285C107.679 10.4285 106.58 11.5448 105.103 11.5448C103.437 11.5448 102.372 10.2739 102.372 8.79698C102.372 7.30285 103.42 6.0835 105.034 6.0835C106.408 6.0835 107.318 7.02806 107.318 7.02806L108.28 5.53393C108.28 5.53393 107.198 4.22871 104.914 4.22871C102.011 4.22871 100.157 6.32393 100.157 8.81416Z" fill="#252F4A"/>
<path d="M41.6065 19.4062V18.2727H48.3608V19.4062H45.6378V27H44.3253V19.4062H41.6065ZM49.0714 27V20.4545H50.3029V21.4943H50.3711C50.4904 21.142 50.7006 20.8651 51.0018 20.6634C51.3058 20.4588 51.6495 20.3565 52.033 20.3565C52.1126 20.3565 52.2063 20.3594 52.3143 20.3651C52.4251 20.3707 52.5117 20.3778 52.5742 20.3864V21.6051C52.5231 21.5909 52.4322 21.5753 52.3015 21.5582C52.1708 21.5384 52.0401 21.5284 51.9094 21.5284C51.6083 21.5284 51.3398 21.5923 51.104 21.7202C50.8711 21.8452 50.6864 22.0199 50.5501 22.2443C50.4137 22.4659 50.3455 22.7187 50.3455 23.0028V27H49.0714ZM56.2635 27.1321C55.6186 27.1321 55.0632 26.9943 54.5973 26.7188C54.1342 26.4403 53.7763 26.0497 53.5234 25.5469C53.2734 25.0412 53.1484 24.4489 53.1484 23.7699C53.1484 23.0994 53.2734 22.5085 53.5234 21.9972C53.7763 21.4858 54.1286 21.0866 54.5803 20.7997C55.0348 20.5128 55.5661 20.3693 56.174 20.3693C56.5433 20.3693 56.9013 20.4304 57.2479 20.5526C57.5945 20.6747 57.9055 20.8665 58.1811 21.1278C58.4567 21.3892 58.674 21.7287 58.8331 22.1463C58.9922 22.5611 59.0717 23.0653 59.0717 23.6591V24.1108H53.8686V23.1562H57.8232C57.8232 22.821 57.755 22.5241 57.6186 22.2656C57.4822 22.0043 57.2905 21.7983 57.0433 21.6477C56.799 21.4972 56.5121 21.4219 56.1825 21.4219C55.8246 21.4219 55.5121 21.5099 55.245 21.6861C54.9808 21.8594 54.7763 22.0866 54.6314 22.3679C54.4893 22.6463 54.4183 22.9489 54.4183 23.2756V24.0213C54.4183 24.4588 54.495 24.831 54.6484 25.1378C54.8047 25.4446 55.022 25.679 55.3004 25.8409C55.5788 26 55.9041 26.0795 56.2763 26.0795C56.5178 26.0795 56.7379 26.0455 56.9368 25.9773C57.1357 25.9062 57.3075 25.8011 57.4524 25.6619C57.5973 25.5227 57.7081 25.3509 57.7848 25.1463L58.9908 25.3636C58.8942 25.7187 58.7209 26.0298 58.4709 26.2969C58.2237 26.5611 57.9126 26.767 57.5376 26.9148C57.1655 27.0597 56.7408 27.1321 56.2635 27.1321ZM61.7596 23.1136V27H60.4854V20.4545H61.7085V21.5199H61.7894C61.94 21.1733 62.1758 20.8949 62.4968 20.6847C62.8207 20.4744 63.2283 20.3693 63.7198 20.3693C64.1658 20.3693 64.5565 20.4631 64.8917 20.6506C65.2269 20.8352 65.4869 21.1108 65.6715 21.4773C65.8562 21.8437 65.9485 22.2969 65.9485 22.8366V27H64.6744V22.9901C64.6744 22.5156 64.5508 22.1449 64.3036 21.8778C64.0565 21.608 63.717 21.473 63.2852 21.473C62.9897 21.473 62.7269 21.5369 62.4968 21.6648C62.2695 21.7926 62.0891 21.9801 61.9556 22.2273C61.8249 22.4716 61.7596 22.767 61.7596 23.1136ZM70.1076 27.1278C69.5792 27.1278 69.1076 26.9929 68.6928 26.723C68.2809 26.4503 67.957 26.0625 67.7212 25.5597C67.4883 25.054 67.3718 24.4474 67.3718 23.7401C67.3718 23.0327 67.4897 22.4276 67.7255 21.9247C67.9641 21.4219 68.2908 21.0369 68.7056 20.7699C69.1204 20.5028 69.5906 20.3693 70.1161 20.3693C70.5224 20.3693 70.8491 20.4375 71.0962 20.5739C71.3462 20.7074 71.5394 20.8636 71.6758 21.0426C71.815 21.2216 71.9229 21.3793 71.9996 21.5156H72.0763V18.2727H73.3505V27H72.1062V25.9815H71.9996C71.9229 26.1207 71.8121 26.2798 71.6673 26.4588C71.5252 26.6378 71.3292 26.794 71.0792 26.9276C70.8292 27.0611 70.5053 27.1278 70.1076 27.1278ZM70.3888 26.0412C70.7553 26.0412 71.065 25.9446 71.3178 25.7514C71.5735 25.5554 71.7667 25.2841 71.8974 24.9375C72.0309 24.5909 72.0977 24.1875 72.0977 23.7273C72.0977 23.2727 72.0323 22.875 71.9016 22.5341C71.771 22.1932 71.5792 21.9276 71.3263 21.7372C71.0735 21.5469 70.761 21.4517 70.3888 21.4517C70.0053 21.4517 69.6857 21.5511 69.43 21.75C69.1744 21.9489 68.9812 22.2202 68.8505 22.5639C68.7227 22.9077 68.6587 23.2955 68.6587 23.7273C68.6587 24.1648 68.7241 24.5582 68.8548 24.9077C68.9854 25.2571 69.1786 25.5341 69.4343 25.7386C69.6928 25.9403 70.011 26.0412 70.3888 26.0412ZM80.0739 22.0526L78.919 22.2571C78.8707 22.1094 78.794 21.9687 78.6889 21.8352C78.5866 21.7017 78.4474 21.5923 78.2713 21.5071C78.0952 21.4219 77.875 21.3793 77.6108 21.3793C77.25 21.3793 76.9489 21.4602 76.7074 21.6222C76.4659 21.7812 76.3452 21.9872 76.3452 22.2401C76.3452 22.4588 76.4261 22.6349 76.5881 22.7685C76.75 22.902 77.0114 23.0114 77.3722 23.0966L78.4119 23.3352C79.0142 23.4744 79.4631 23.6889 79.7585 23.9787C80.054 24.2685 80.2017 24.6449 80.2017 25.108C80.2017 25.5 80.0881 25.8494 79.8608 26.1562C79.6364 26.4602 79.3224 26.6989 78.919 26.8722C78.5185 27.0455 78.054 27.1321 77.5256 27.1321C76.7926 27.1321 76.1946 26.9759 75.7315 26.6634C75.2685 26.348 74.9844 25.9006 74.8793 25.321L76.1108 25.1335C76.1875 25.4545 76.3452 25.6974 76.5838 25.8622C76.8224 26.0241 77.1335 26.1051 77.517 26.1051C77.9347 26.1051 78.2685 26.0185 78.5185 25.8452C78.7685 25.669 78.8935 25.4545 78.8935 25.2017C78.8935 24.9972 78.8168 24.8253 78.6634 24.6861C78.5128 24.5469 78.2812 24.4418 77.9688 24.3707L76.8608 24.1278C76.25 23.9886 75.7983 23.767 75.5057 23.4631C75.2159 23.1591 75.071 22.7741 75.071 22.3082C75.071 21.9219 75.179 21.5838 75.3949 21.294C75.6108 21.0043 75.9091 20.7784 76.2898 20.6165C76.6705 20.4517 77.1065 20.3693 77.598 20.3693C78.3054 20.3693 78.8622 20.5227 79.2685 20.8295C79.6747 21.1335 79.9432 21.5412 80.0739 22.0526Z" fill="#1B84FF"/>
<defs>
<filter id="filter0_i_15459_18931" x="7.10254" y="0.634766" width="14.4905" height="29.1743" filterUnits="userSpaceOnUse" color-interpolation-filters="sRGB">
<feFlood flood-opacity="0" result="BackgroundImageFix"/>
<feBlend mode="normal" in="SourceGraphic" in2="BackgroundImageFix" result="shape"/>
<feColorMatrix in="SourceAlpha" type="matrix" values="0 0 0 0 0 0 0 0 0 0 0 0 0 0 0 0 0 0 127 0" result="hardAlpha"/>
<feOffset dx="-4" dy="3"/>
<feGaussianBlur stdDeviation="2"/>
<feComposite in2="hardAlpha" operator="arithmetic" k2="-1" k3="1"/>
<feColorMatrix type="matrix" values="0 0 0 0 0.904167 0 0 0 0 0.892865 0 0 0 0 0.892865 0 0 0 0.4 0"/>
<feBlend mode="normal" in2="shape" result="effect1_innerShadow_15459_18931"/>
</filter>
<linearGradient id="paint0_linear_15459_18931" x1="13.0373" y1="12.2197" x2="22.4944" y2="15.0568" gradientUnits="userSpaceOnUse">
<stop stop-opacity="0.2"/>
<stop offset="0.911458" stop-color="white" stop-opacity="0"/>
</linearGradient>
</defs>
</svg>
