<svg width="78" height="56" viewBox="0 0 78 56" fill="none" xmlns="http://www.w3.org/2000/svg">
<path d="M61.1139 2.77686L76.3223 50.1304C77.1516 52.7123 75.2257 55.3535 72.5139 55.3535H61.3306C59.5878 55.3535 58.0456 54.2251 57.5182 52.5641L42.4826 5.21052C41.6636 2.63121 43.5888 0 46.295 0H57.3055C59.0434 0 60.5825 1.12219 61.1139 2.77686Z" fill="#50CD89"/>
<g filter="url(#filter0_i_2513_1601)">
<path d="M46.5486 37.8L35.8244 3.44919C35.1838 1.39729 33.2838 0 31.1342 0C28.5178 0 26.3603 2.05036 26.2272 4.66341L24.9188 30.3392C24.8724 31.2511 24.9824 32.1643 25.2441 33.0391L31.0657 52.4999C31.5723 54.1934 33.1303 55.3535 34.8979 55.3535H40.3094C42.0505 55.3535 43.5915 54.2274 44.1204 52.5686L46.5268 45.0214C47.2753 42.6736 47.283 40.1523 46.5486 37.8Z" fill="white"/>
<path d="M46.5486 37.8L35.8244 3.44919C35.1838 1.39729 33.2838 0 31.1342 0C28.5178 0 26.3603 2.05036 26.2272 4.66341L24.9188 30.3392C24.8724 31.2511 24.9824 32.1643 25.2441 33.0391L31.0657 52.4999C31.5723 54.1934 33.1303 55.3535 34.8979 55.3535H40.3094C42.0505 55.3535 43.5915 54.2274 44.1204 52.5686L46.5268 45.0214C47.2753 42.6736 47.283 40.1523 46.5486 37.8Z" fill="url(#paint0_linear_2513_1601)"/>
</g>
<path d="M20.317 0H31.3316C34.0288 0 35.9529 2.61489 35.1505 5.18995L20.2695 52.9475C19.7487 54.619 18.2014 55.7576 16.4506 55.7576H5.43606C2.73888 55.7576 0.814784 53.1427 1.61716 50.5676L16.4981 2.81005C17.019 1.13856 18.5663 0 20.317 0Z" fill="#50CD89"/>
<defs>
<filter id="filter0_i_2513_1601" x="24.9087" y="0" width="22.1851" height="55.3535" filterUnits="userSpaceOnUse" color-interpolation-filters="sRGB">
<feFlood flood-opacity="0" result="BackgroundImageFix"/>
<feBlend mode="normal" in="SourceGraphic" in2="BackgroundImageFix" result="shape"/>
<feColorMatrix in="SourceAlpha" type="matrix" values="0 0 0 0 0 0 0 0 0 0 0 0 0 0 0 0 0 0 127 0" result="hardAlpha"/>
<feOffset dx="-4" dy="3"/>
<feComposite in2="hardAlpha" operator="arithmetic" k2="-1" k3="1"/>
<feColorMatrix type="matrix" values="0 0 0 0 0.904167 0 0 0 0 0.892865 0 0 0 0 0.892865 0 0 0 0.4 0"/>
<feBlend mode="normal" in2="shape" result="effect1_innerShadow_2513_1601"/>
</filter>
<linearGradient id="paint0_linear_2513_1601" x1="29.0002" y1="24.5" x2="40.5002" y2="27.5" gradientUnits="userSpaceOnUse">
<stop stop-opacity="0.25"/>
<stop offset="0.911458" stop-color="white" stop-opacity="0"/>
</linearGradient>
</defs>
</svg>
