<svg width="42" height="30" viewBox="0 0 42 30" fill="none" xmlns="http://www.w3.org/2000/svg">
<g clip-path="url(#clip0_15783_5037)">
<path d="M32.8468 1.4876L40.9942 26.8556C41.4384 28.2387 40.4067 29.6537 38.954 29.6537H32.9629C32.0293 29.6537 31.2031 29.0492 30.9205 28.1593L22.8657 2.79135C22.427 1.40958 23.4583 0 24.9081 0H30.8066C31.7376 0 32.5621 0.601173 32.8468 1.4876Z" fill="#FF6F1E"/>
<g filter="url(#filter0_i_15783_5037)">
<path opacity="0.3" d="M25.0438 20.25L19.2987 1.84778C18.9556 0.748548 17.9377 0 16.7861 0C15.3845 0 14.2287 1.09841 14.1573 2.49826L13.4564 16.2531C13.4315 16.7417 13.4905 17.2309 13.6307 17.6995L16.7494 28.1249C17.0208 29.0322 17.8555 29.6537 18.8023 29.6537H21.7014C22.6341 29.6537 23.4597 29.0504 23.743 28.1617L25.0321 24.1186C25.4331 22.8609 25.4372 21.5102 25.0438 20.25Z" fill="white"/>
<path d="M25.0438 20.25L19.2987 1.84778C18.9556 0.748548 17.9377 0 16.7861 0C15.3845 0 14.2287 1.09841 14.1573 2.49826L13.4564 16.2531C13.4315 16.7417 13.4905 17.2309 13.6307 17.6995L16.7494 28.1249C17.0208 29.0322 17.8555 29.6537 18.8023 29.6537H21.7014C22.6341 29.6537 23.4597 29.0504 23.743 28.1617L25.0321 24.1186C25.4331 22.8609 25.4372 21.5102 25.0438 20.25Z" fill="#3D315F" fill-opacity="0.2"/>
<path d="M25.0438 20.25L19.2987 1.84778C18.9556 0.748548 17.9377 0 16.7861 0C15.3845 0 14.2287 1.09841 14.1573 2.49826L13.4564 16.2531C13.4315 16.7417 13.4905 17.2309 13.6307 17.6995L16.7494 28.1249C17.0208 29.0322 17.8555 29.6537 18.8023 29.6537H21.7014C22.6341 29.6537 23.4597 29.0504 23.743 28.1617L25.0321 24.1186C25.4331 22.8609 25.4372 21.5102 25.0438 20.25Z" fill="url(#paint0_linear_15783_5037)"/>
</g>
<path d="M10.9913 0H16.8919C18.3369 0 19.3676 1.40083 18.9378 2.78033L10.9658 28.3647C10.6868 29.2602 9.85789 29.8701 8.91997 29.8701H3.01932C1.5744 29.8701 0.543637 28.4693 0.973481 27.0898L8.94541 1.50538C9.22447 0.609943 10.0534 0 10.9913 0Z" fill="#FF6F1E"/>
</g>
<defs>
<filter id="filter0_i_15783_5037" x="9.45089" y="0" width="15.885" height="32.6533" filterUnits="userSpaceOnUse" color-interpolation-filters="sRGB">
<feFlood flood-opacity="0" result="BackgroundImageFix"/>
<feBlend mode="normal" in="SourceGraphic" in2="BackgroundImageFix" result="shape"/>
<feColorMatrix in="SourceAlpha" type="matrix" values="0 0 0 0 0 0 0 0 0 0 0 0 0 0 0 0 0 0 127 0" result="hardAlpha"/>
<feOffset dx="-4" dy="3"/>
<feGaussianBlur stdDeviation="2"/>
<feComposite in2="hardAlpha" operator="arithmetic" k2="-1" k3="1"/>
<feColorMatrix type="matrix" values="0 0 0 0 0.904167 0 0 0 0 0.892865 0 0 0 0 0.892865 0 0 0 0.4 0"/>
<feBlend mode="normal" in2="shape" result="effect1_innerShadow_15783_5037"/>
</filter>
<linearGradient id="paint0_linear_15783_5037" x1="15.6429" y1="13.125" x2="21.8036" y2="14.7321" gradientUnits="userSpaceOnUse">
<stop stop-opacity="0.25"/>
<stop offset="0.911458" stop-color="white" stop-opacity="0"/>
</linearGradient>
<clipPath id="clip0_15783_5037">
<rect width="41.7857" height="30" fill="white" transform="translate(0.107147)"/>
</clipPath>
</defs>
</svg>
