<svg width="60" height="52" viewBox="0 0 60 52" fill="none" xmlns="http://www.w3.org/2000/svg">
<path d="M22.7992 22.9988C24.7874 22.9988 26.3992 21.3871 26.3992 19.3988C26.3992 17.4106 24.7874 15.7988 22.7992 15.7988C20.811 15.7988 19.1992 17.4106 19.1992 19.3988C19.1992 21.3871 20.811 22.9988 22.7992 22.9988Z" fill="white"/>
<path d="M22.2016 43.9988C24.1898 43.9988 25.8016 42.3871 25.8016 40.3988C25.8016 38.4106 24.1898 36.7988 22.2016 36.7988C20.2133 36.7988 18.6016 38.4106 18.6016 40.3988C18.6016 42.3871 20.2133 43.9988 22.2016 43.9988Z" fill="white"/>
<path d="M19.2 13.4C19.8627 13.4 20.4 12.8627 20.4 12.2C20.4 11.5373 19.8627 11 19.2 11C18.5373 11 18 11.5373 18 12.2C18 12.8627 18.5373 13.4 19.2 13.4Z" fill="white"/>
<path d="M17.7008 30.1984C18.1978 30.1984 18.6008 29.7955 18.6008 29.2984C18.6008 28.8014 18.1978 28.3984 17.7008 28.3984C17.2037 28.3984 16.8008 28.8014 16.8008 29.2984C16.8008 29.7955 17.2037 30.1984 17.7008 30.1984Z" fill="white"/>
<path d="M40.7984 31.0988C41.2955 31.0988 41.6984 30.6959 41.6984 30.1988C41.6984 29.7018 41.2955 29.2988 40.7984 29.2988C40.3014 29.2988 39.8984 29.7018 39.8984 30.1988C39.8984 30.6959 40.3014 31.0988 40.7984 31.0988Z" fill="white"/>
<path d="M32.0992 44.5988C32.5963 44.5988 32.9992 44.1959 32.9992 43.6988C32.9992 43.2018 32.5963 42.7988 32.0992 42.7988C31.6022 42.7988 31.1992 43.2018 31.1992 43.6988C31.1992 44.1959 31.6022 44.5988 32.0992 44.5988Z" fill="white"/>
<path d="M30.0008 25.9996C30.6635 25.9996 31.2008 25.4624 31.2008 24.7996C31.2008 24.1369 30.6635 23.5996 30.0008 23.5996C29.338 23.5996 28.8008 24.1369 28.8008 24.7996C28.8008 25.4624 29.338 25.9996 30.0008 25.9996Z" fill="white"/>
<path d="M25.4984 32.5984C26.6582 32.5984 27.5984 31.6582 27.5984 30.4984C27.5984 29.3386 26.6582 28.3984 25.4984 28.3984C24.3386 28.3984 23.3984 29.3386 23.3984 30.4984C23.3984 31.6582 24.3386 32.5984 25.4984 32.5984Z" fill="white"/>
<path d="M38.4016 12.1996C39.3957 12.1996 40.2016 11.3937 40.2016 10.3996C40.2016 9.4055 39.3957 8.59961 38.4016 8.59961C37.4074 8.59961 36.6016 9.4055 36.6016 10.3996C36.6016 11.3937 37.4074 12.1996 38.4016 12.1996Z" fill="white"/>
<path d="M37.6492 25.6988C40.383 25.6988 42.5992 23.4826 42.5992 20.7488C42.5992 18.015 40.383 15.7988 37.6492 15.7988C34.9154 15.7988 32.6992 18.015 32.6992 20.7488C32.6992 23.4826 34.9154 25.6988 37.6492 25.6988Z" fill="white"/>
<path d="M29.0984 14.5992C30.5896 14.5992 31.7984 13.3904 31.7984 11.8992C31.7984 10.408 30.5896 9.19922 29.0984 9.19922C27.6073 9.19922 26.3984 10.408 26.3984 11.8992C26.3984 13.3904 27.6073 14.5992 29.0984 14.5992Z" fill="white"/>
<path d="M35.6992 40.3984C38.1845 40.3984 40.1992 38.3837 40.1992 35.8984C40.1992 33.4132 38.1845 31.3984 35.6992 31.3984C33.2139 31.3984 31.1992 33.4132 31.1992 35.8984C31.1992 38.3837 33.2139 40.3984 35.6992 40.3984Z" fill="white"/>
<path d="M4.74 2.162C3.72 3.287 3.201 5.3 3.201 8.099V17.999C3.201 21.308 1.599 22.676 0 23.213V28.214C0.952474 28.49 1.77758 29.0921 2.331 29.915C2.931 30.815 3.201 32.168 3.201 34.01V43.91C3.17347 45.163 3.30757 46.4143 3.6 47.633C3.80146 48.4663 4.1984 49.2396 4.758 49.889C5.29064 50.4615 5.9704 50.8767 6.723 51.089C7.78197 51.3849 8.87871 51.5234 9.978 51.5H13.5V46.562H13.335C12.648 46.5747 11.9612 46.5255 11.283 46.415C10.7035 46.3275 10.165 46.0636 9.741 45.659C9.3438 45.2361 9.08436 44.7026 8.997 44.129C8.88869 43.501 8.83948 42.8642 8.85 42.227V33.5C8.85726 32.6867 8.80914 31.8738 8.706 31.067C8.63115 30.4835 8.46724 29.9148 8.22 29.381C7.98607 28.8914 7.67625 28.4419 7.302 28.049C6.83595 27.5749 6.31763 27.1553 5.757 26.798L4.614 26.042L5.733 25.25C6.30548 24.8508 6.85069 24.4138 7.365 23.942C7.73214 23.6013 8.03141 23.1941 8.247 22.742C8.47803 22.2297 8.63073 21.6857 8.7 21.128C8.80761 20.2613 8.85572 19.3883 8.844 18.515V9.773C8.83518 9.11857 8.8874 8.46474 9 7.82C9.09215 7.23012 9.36952 6.68484 9.792 6.263C10.2418 5.86571 10.8035 5.61735 11.4 5.552C12.0596 5.4685 12.7242 5.43041 13.389 5.438H13.5V0.5H10.134C7.557 0.5 5.742 1.058 4.74 2.162Z" fill="white"/>
<path d="M56.799 17.9892V8.08923C56.799 5.27523 56.28 3.28923 55.26 2.15223C54.24 1.01523 52.443 0.490234 49.86 0.490234H46.5V5.43723H46.614C47.2788 5.42964 47.9434 5.46773 48.603 5.55123C49.1995 5.61658 49.7612 5.86494 50.211 6.26223C50.6324 6.68448 50.9087 7.22972 51 7.81923C51.1096 8.46425 51.1588 9.11808 51.147 9.77223V18.5142C51.1353 19.3875 51.1834 20.2605 51.291 21.1272C51.3625 21.6842 51.5172 22.2272 51.75 22.7382C51.9656 23.1903 52.2649 23.5975 52.632 23.9382C53.1463 24.41 53.6915 24.847 54.264 25.2462L55.383 26.0382L54.24 26.7942C53.6794 27.1515 53.1611 27.5712 52.695 28.0452C52.3208 28.4381 52.0109 28.8877 51.777 29.3772C51.5298 29.9111 51.3659 30.4797 51.291 31.0632C51.1879 31.87 51.1397 32.6829 51.147 33.4962V42.2382C51.1575 42.8754 51.1083 43.5122 51 44.1402C50.9282 44.7215 50.6643 45.2622 50.2501 45.6763C49.8359 46.0905 49.2953 46.3544 48.714 46.4262C48.0358 46.5367 47.349 46.5859 46.662 46.5732H46.5V51.4992H50.022C51.118 51.5237 52.2116 51.3872 53.268 51.0942C54.0206 50.8819 54.7004 50.4668 55.233 49.8942C55.7926 49.2448 56.1895 48.4715 56.391 47.6382C56.6872 46.417 56.8244 45.1626 56.799 43.9062V34.0062C56.799 32.1642 57.084 30.8232 57.669 29.9112C58.2224 29.0884 59.0475 28.4863 60 28.2102V23.2122C58.401 22.6752 56.799 21.3072 56.799 17.9892Z" fill="white"/>
</svg>